<mxfile host="app.diagrams.net" agent="Mozilla/5.0 (Macintosh; Intel Mac OS X 10_15_7) AppleWebKit/537.36 (KHTML, like Gecko) Chrome/127.0.0.0 Safari/537.36" version="24.7.7">
  <diagram id="C5RBs43oDa-KdzZeNtuy" name="Page-1">
    <mxGraphModel dx="1566" dy="991" grid="1" gridSize="10" guides="1" tooltips="1" connect="1" arrows="1" fold="1" page="1" pageScale="1" pageWidth="827" pageHeight="1169" math="0" shadow="0">
      <root>
        <mxCell id="WIyWlLk6GJQsqaUBKTNV-0" />
        <mxCell id="WIyWlLk6GJQsqaUBKTNV-1" parent="WIyWlLk6GJQsqaUBKTNV-0" />
        <mxCell id="zkfFHV4jXpPFQw0GAbJ--0" value="Ui interface" style="swimlane;fontStyle=2;align=center;verticalAlign=top;childLayout=stackLayout;horizontal=1;startSize=26;horizontalStack=0;resizeParent=1;resizeLast=0;collapsible=1;marginBottom=0;rounded=0;shadow=0;strokeWidth=1;" parent="WIyWlLk6GJQsqaUBKTNV-1" vertex="1">
          <mxGeometry x="230" y="110" width="165" height="162" as="geometry">
            <mxRectangle x="230" y="140" width="160" height="26" as="alternateBounds" />
          </mxGeometry>
        </mxCell>
        <mxCell id="zkfFHV4jXpPFQw0GAbJ--4" value="" style="line;html=1;strokeWidth=1;align=left;verticalAlign=middle;spacingTop=-1;spacingLeft=3;spacingRight=3;rotatable=0;labelPosition=right;points=[];portConstraint=eastwest;" parent="zkfFHV4jXpPFQw0GAbJ--0" vertex="1">
          <mxGeometry y="26" width="165" height="8" as="geometry" />
        </mxCell>
        <mxCell id="zkfFHV4jXpPFQw0GAbJ--5" value="Exit()" style="text;align=left;verticalAlign=top;spacingLeft=4;spacingRight=4;overflow=hidden;rotatable=0;points=[[0,0.5],[1,0.5]];portConstraint=eastwest;" parent="zkfFHV4jXpPFQw0GAbJ--0" vertex="1">
          <mxGeometry y="34" width="165" height="26" as="geometry" />
        </mxCell>
        <mxCell id="zkfFHV4jXpPFQw0GAbJ--2" value="Pause Game()" style="text;align=left;verticalAlign=top;spacingLeft=4;spacingRight=4;overflow=hidden;rotatable=0;points=[[0,0.5],[1,0.5]];portConstraint=eastwest;rounded=0;shadow=0;html=0;" parent="zkfFHV4jXpPFQw0GAbJ--0" vertex="1">
          <mxGeometry y="60" width="165" height="26" as="geometry" />
        </mxCell>
        <mxCell id="zkfFHV4jXpPFQw0GAbJ--3" value="Resume Game()" style="text;align=left;verticalAlign=top;spacingLeft=4;spacingRight=4;overflow=hidden;rotatable=0;points=[[0,0.5],[1,0.5]];portConstraint=eastwest;rounded=0;shadow=0;html=0;" parent="zkfFHV4jXpPFQw0GAbJ--0" vertex="1">
          <mxGeometry y="86" width="165" height="26" as="geometry" />
        </mxCell>
        <UserObject label="Load Game()" placeholders="1" name="Variable" id="SIWMxVeSozMk9zqkIAL3-12">
          <mxCell style="text;html=1;strokeColor=none;fillColor=none;align=left;verticalAlign=middle;whiteSpace=wrap;overflow=hidden;" parent="zkfFHV4jXpPFQw0GAbJ--0" vertex="1">
            <mxGeometry y="112" width="165" height="20" as="geometry" />
          </mxCell>
        </UserObject>
        <mxCell id="Y8HX50lOdKo4PexZbSxk-19" value="Save game()" style="text;html=1;align=left;verticalAlign=middle;resizable=0;points=[];autosize=1;strokeColor=none;fillColor=none;" parent="zkfFHV4jXpPFQw0GAbJ--0" vertex="1">
          <mxGeometry y="132" width="165" height="30" as="geometry" />
        </mxCell>
        <mxCell id="zkfFHV4jXpPFQw0GAbJ--17" value="Player" style="swimlane;fontStyle=0;align=center;verticalAlign=top;childLayout=stackLayout;horizontal=1;startSize=26;horizontalStack=0;resizeParent=1;resizeLast=0;collapsible=1;marginBottom=0;rounded=0;shadow=0;strokeWidth=1;" parent="WIyWlLk6GJQsqaUBKTNV-1" vertex="1">
          <mxGeometry x="520" y="451" width="160" height="334" as="geometry">
            <mxRectangle x="550" y="140" width="160" height="26" as="alternateBounds" />
          </mxGeometry>
        </mxCell>
        <mxCell id="SIWMxVeSozMk9zqkIAL3-1" value="&lt;ul&gt;&lt;li&gt;Health Point: int&lt;/li&gt;&lt;li&gt;Magic Point: int&lt;/li&gt;&lt;li&gt;Level: int&lt;/li&gt;&lt;li&gt;Experience: int&lt;/li&gt;&lt;li&gt;Currency: int&lt;/li&gt;&lt;li&gt;Skills: Skils[]&lt;/li&gt;&lt;/ul&gt;" style="text;strokeColor=none;fillColor=none;html=1;whiteSpace=wrap;verticalAlign=middle;overflow=hidden;" parent="zkfFHV4jXpPFQw0GAbJ--17" vertex="1">
          <mxGeometry y="26" width="160" height="114" as="geometry" />
        </mxCell>
        <mxCell id="zkfFHV4jXpPFQw0GAbJ--23" value="" style="line;html=1;strokeWidth=1;align=left;verticalAlign=middle;spacingTop=-1;spacingLeft=3;spacingRight=3;rotatable=0;labelPosition=right;points=[];portConstraint=eastwest;" parent="zkfFHV4jXpPFQw0GAbJ--17" vertex="1">
          <mxGeometry y="140" width="160" height="8" as="geometry" />
        </mxCell>
        <mxCell id="SIWMxVeSozMk9zqkIAL3-2" value="&lt;ul&gt;&lt;li&gt;Attack(): void&lt;/li&gt;&lt;li&gt;Receive Damage()&lt;/li&gt;&lt;li&gt;Die()&lt;/li&gt;&lt;li&gt;UseMagic()&lt;/li&gt;&lt;li&gt;LevelUp()&lt;/li&gt;&lt;li&gt;EquipItem()&lt;/li&gt;&lt;li&gt;EquipWeapon()&lt;/li&gt;&lt;li&gt;dodge()&lt;/li&gt;&lt;li&gt;defense()&lt;/li&gt;&lt;/ul&gt;" style="text;strokeColor=none;fillColor=none;html=1;whiteSpace=wrap;verticalAlign=middle;overflow=hidden;" parent="zkfFHV4jXpPFQw0GAbJ--17" vertex="1">
          <mxGeometry y="148" width="160" height="164" as="geometry" />
        </mxCell>
        <mxCell id="zkfFHV4jXpPFQw0GAbJ--26" value="" style="endArrow=open;shadow=0;strokeWidth=1;rounded=0;curved=0;endFill=1;edgeStyle=elbowEdgeStyle;elbow=vertical;" parent="WIyWlLk6GJQsqaUBKTNV-1" source="Y8HX50lOdKo4PexZbSxk-18" target="zkfFHV4jXpPFQw0GAbJ--17" edge="1">
          <mxGeometry x="0.5" y="41" relative="1" as="geometry">
            <mxPoint x="600" y="310" as="sourcePoint" />
            <mxPoint x="540" y="192" as="targetPoint" />
            <mxPoint x="-40" y="32" as="offset" />
          </mxGeometry>
        </mxCell>
        <mxCell id="Y8HX50lOdKo4PexZbSxk-1" value="Enemy&#xa;" style="swimlane;fontStyle=0;align=center;verticalAlign=top;childLayout=stackLayout;horizontal=1;startSize=26;horizontalStack=0;resizeParent=1;resizeLast=0;collapsible=1;marginBottom=0;rounded=0;shadow=0;strokeWidth=1;" parent="WIyWlLk6GJQsqaUBKTNV-1" vertex="1">
          <mxGeometry x="290" y="680" width="160" height="244" as="geometry">
            <mxRectangle x="550" y="140" width="160" height="26" as="alternateBounds" />
          </mxGeometry>
        </mxCell>
        <mxCell id="SIWMxVeSozMk9zqkIAL3-15" value="&lt;ul&gt;&lt;li&gt;Health Point: int&lt;/li&gt;&lt;li&gt;Magic Point: int&lt;/li&gt;&lt;li&gt;Level: int&lt;/li&gt;&lt;li&gt;hostility: bool&lt;/li&gt;&lt;li&gt;name: string&lt;/li&gt;&lt;li&gt;loot: item[]&lt;/li&gt;&lt;/ul&gt;" style="text;strokeColor=none;fillColor=none;html=1;whiteSpace=wrap;verticalAlign=middle;overflow=hidden;" parent="Y8HX50lOdKo4PexZbSxk-1" vertex="1">
          <mxGeometry y="26" width="160" height="114" as="geometry" />
        </mxCell>
        <mxCell id="Y8HX50lOdKo4PexZbSxk-6" value="" style="line;html=1;strokeWidth=1;align=left;verticalAlign=middle;spacingTop=-1;spacingLeft=3;spacingRight=3;rotatable=0;labelPosition=right;points=[];portConstraint=eastwest;" parent="Y8HX50lOdKo4PexZbSxk-1" vertex="1">
          <mxGeometry y="140" width="160" height="8" as="geometry" />
        </mxCell>
        <mxCell id="SIWMxVeSozMk9zqkIAL3-17" value="&lt;ul&gt;&lt;li&gt;getAttack(): void&lt;/li&gt;&lt;li&gt;getReceiveDamage()&lt;/li&gt;&lt;li&gt;Die()&lt;/li&gt;&lt;/ul&gt;" style="text;strokeColor=none;fillColor=none;html=1;whiteSpace=wrap;verticalAlign=middle;overflow=hidden;" parent="Y8HX50lOdKo4PexZbSxk-1" vertex="1">
          <mxGeometry y="148" width="160" height="96" as="geometry" />
        </mxCell>
        <mxCell id="Y8HX50lOdKo4PexZbSxk-23" value="Items" style="swimlane;fontStyle=1;align=center;verticalAlign=top;childLayout=stackLayout;horizontal=1;startSize=26;horizontalStack=0;resizeParent=1;resizeParentMax=0;resizeLast=0;collapsible=1;marginBottom=0;whiteSpace=wrap;html=1;" parent="WIyWlLk6GJQsqaUBKTNV-1" vertex="1">
          <mxGeometry x="1081" y="364" width="160" height="160" as="geometry" />
        </mxCell>
        <mxCell id="SIWMxVeSozMk9zqkIAL3-20" value="&lt;ul&gt;&lt;li&gt;Name: string&lt;/li&gt;&lt;li&gt;description: string&lt;/li&gt;&lt;li&gt;Itemtype: ItemType&lt;/li&gt;&lt;/ul&gt;" style="text;strokeColor=none;fillColor=none;html=1;whiteSpace=wrap;verticalAlign=middle;overflow=hidden;" parent="Y8HX50lOdKo4PexZbSxk-23" vertex="1">
          <mxGeometry y="26" width="160" height="80" as="geometry" />
        </mxCell>
        <mxCell id="Y8HX50lOdKo4PexZbSxk-25" value="" style="line;strokeWidth=1;fillColor=none;align=left;verticalAlign=middle;spacingTop=-1;spacingLeft=3;spacingRight=3;rotatable=0;labelPosition=right;points=[];portConstraint=eastwest;strokeColor=inherit;" parent="Y8HX50lOdKo4PexZbSxk-23" vertex="1">
          <mxGeometry y="106" width="160" height="8" as="geometry" />
        </mxCell>
        <mxCell id="Y8HX50lOdKo4PexZbSxk-26" value="&lt;ul&gt;&lt;li&gt;Applyeffect()&lt;/li&gt;&lt;/ul&gt;" style="text;strokeColor=none;fillColor=none;align=left;verticalAlign=top;spacingLeft=4;spacingRight=4;overflow=hidden;rotatable=0;points=[[0,0.5],[1,0.5]];portConstraint=eastwest;whiteSpace=wrap;html=1;" parent="Y8HX50lOdKo4PexZbSxk-23" vertex="1">
          <mxGeometry y="114" width="160" height="46" as="geometry" />
        </mxCell>
        <mxCell id="Y8HX50lOdKo4PexZbSxk-27" value="Skills" style="swimlane;fontStyle=1;align=center;verticalAlign=top;childLayout=stackLayout;horizontal=1;startSize=26;horizontalStack=0;resizeParent=1;resizeParentMax=0;resizeLast=0;collapsible=1;marginBottom=0;whiteSpace=wrap;html=1;" parent="WIyWlLk6GJQsqaUBKTNV-1" vertex="1">
          <mxGeometry x="520" y="890" width="160" height="194" as="geometry" />
        </mxCell>
        <mxCell id="SIWMxVeSozMk9zqkIAL3-18" value="&lt;ul&gt;&lt;li&gt;Name: string&lt;/li&gt;&lt;li&gt;CoolDown: float&lt;/li&gt;&lt;li&gt;MPcost: int&lt;/li&gt;&lt;li&gt;damage: int&lt;/li&gt;&lt;/ul&gt;" style="text;strokeColor=none;fillColor=none;html=1;whiteSpace=wrap;verticalAlign=middle;overflow=hidden;" parent="Y8HX50lOdKo4PexZbSxk-27" vertex="1">
          <mxGeometry y="26" width="160" height="80" as="geometry" />
        </mxCell>
        <mxCell id="Y8HX50lOdKo4PexZbSxk-29" value="" style="line;strokeWidth=1;fillColor=none;align=left;verticalAlign=middle;spacingTop=-1;spacingLeft=3;spacingRight=3;rotatable=0;labelPosition=right;points=[];portConstraint=eastwest;strokeColor=inherit;" parent="Y8HX50lOdKo4PexZbSxk-27" vertex="1">
          <mxGeometry y="106" width="160" height="8" as="geometry" />
        </mxCell>
        <mxCell id="SIWMxVeSozMk9zqkIAL3-19" value="&lt;ul&gt;&lt;li&gt;active()&lt;/li&gt;&lt;li&gt;IsReady(): bool&lt;/li&gt;&lt;/ul&gt;" style="text;strokeColor=none;fillColor=none;html=1;whiteSpace=wrap;verticalAlign=middle;overflow=hidden;" parent="Y8HX50lOdKo4PexZbSxk-27" vertex="1">
          <mxGeometry y="114" width="160" height="80" as="geometry" />
        </mxCell>
        <mxCell id="Y8HX50lOdKo4PexZbSxk-31" value="Weapon" style="swimlane;fontStyle=1;align=center;verticalAlign=top;childLayout=stackLayout;horizontal=1;startSize=26;horizontalStack=0;resizeParent=1;resizeParentMax=0;resizeLast=0;collapsible=1;marginBottom=0;whiteSpace=wrap;html=1;" parent="WIyWlLk6GJQsqaUBKTNV-1" vertex="1">
          <mxGeometry x="790" y="680" width="160" height="210" as="geometry" />
        </mxCell>
        <mxCell id="SIWMxVeSozMk9zqkIAL3-22" value="&lt;ul&gt;&lt;li&gt;damage: int&lt;/li&gt;&lt;li&gt;attackType&lt;/li&gt;&lt;/ul&gt;" style="text;strokeColor=none;fillColor=none;html=1;whiteSpace=wrap;verticalAlign=middle;overflow=hidden;" parent="Y8HX50lOdKo4PexZbSxk-31" vertex="1">
          <mxGeometry y="26" width="160" height="80" as="geometry" />
        </mxCell>
        <mxCell id="Y8HX50lOdKo4PexZbSxk-33" value="" style="line;strokeWidth=1;fillColor=none;align=left;verticalAlign=middle;spacingTop=-1;spacingLeft=3;spacingRight=3;rotatable=0;labelPosition=right;points=[];portConstraint=eastwest;strokeColor=inherit;" parent="Y8HX50lOdKo4PexZbSxk-31" vertex="1">
          <mxGeometry y="106" width="160" height="8" as="geometry" />
        </mxCell>
        <mxCell id="SIWMxVeSozMk9zqkIAL3-23" value="&lt;ul&gt;&lt;li&gt;collision check(): bool&lt;/li&gt;&lt;li&gt;equip()&lt;/li&gt;&lt;li&gt;unequip()&lt;/li&gt;&lt;li&gt;getAttackType(): Weapon&lt;/li&gt;&lt;/ul&gt;" style="text;strokeColor=none;fillColor=none;html=1;whiteSpace=wrap;verticalAlign=middle;overflow=hidden;" parent="Y8HX50lOdKo4PexZbSxk-31" vertex="1">
          <mxGeometry y="114" width="160" height="96" as="geometry" />
        </mxCell>
        <mxCell id="SIWMxVeSozMk9zqkIAL3-32" value="Armour" style="swimlane;fontStyle=1;align=center;verticalAlign=top;childLayout=stackLayout;horizontal=1;startSize=26;horizontalStack=0;resizeParent=1;resizeParentMax=0;resizeLast=0;collapsible=1;marginBottom=0;whiteSpace=wrap;html=1;" parent="WIyWlLk6GJQsqaUBKTNV-1" vertex="1">
          <mxGeometry x="790" y="440" width="160" height="194" as="geometry" />
        </mxCell>
        <mxCell id="SIWMxVeSozMk9zqkIAL3-33" value="&lt;ul&gt;&lt;li&gt;armour: int&lt;/li&gt;&lt;li&gt;buffType&lt;/li&gt;&lt;/ul&gt;" style="text;strokeColor=none;fillColor=none;html=1;whiteSpace=wrap;verticalAlign=middle;overflow=hidden;" parent="SIWMxVeSozMk9zqkIAL3-32" vertex="1">
          <mxGeometry y="26" width="160" height="80" as="geometry" />
        </mxCell>
        <mxCell id="SIWMxVeSozMk9zqkIAL3-34" value="" style="line;strokeWidth=1;fillColor=none;align=left;verticalAlign=middle;spacingTop=-1;spacingLeft=3;spacingRight=3;rotatable=0;labelPosition=right;points=[];portConstraint=eastwest;strokeColor=inherit;" parent="SIWMxVeSozMk9zqkIAL3-32" vertex="1">
          <mxGeometry y="106" width="160" height="8" as="geometry" />
        </mxCell>
        <mxCell id="SIWMxVeSozMk9zqkIAL3-35" value="&lt;ul&gt;&lt;li&gt;equip()&lt;/li&gt;&lt;li&gt;unequip()&lt;/li&gt;&lt;li&gt;getBuffType()&lt;/li&gt;&lt;li&gt;getItem(): Armour&lt;/li&gt;&lt;/ul&gt;" style="text;strokeColor=none;fillColor=none;html=1;whiteSpace=wrap;verticalAlign=middle;overflow=hidden;" parent="SIWMxVeSozMk9zqkIAL3-32" vertex="1">
          <mxGeometry y="114" width="160" height="80" as="geometry" />
        </mxCell>
        <mxCell id="SIWMxVeSozMk9zqkIAL3-44" value="Inventory" style="swimlane;fontStyle=1;align=center;verticalAlign=top;childLayout=stackLayout;horizontal=1;startSize=26;horizontalStack=0;resizeParent=1;resizeParentMax=0;resizeLast=0;collapsible=1;marginBottom=0;whiteSpace=wrap;html=1;" parent="WIyWlLk6GJQsqaUBKTNV-1" vertex="1">
          <mxGeometry x="90" y="370" width="160" height="200" as="geometry" />
        </mxCell>
        <mxCell id="SIWMxVeSozMk9zqkIAL3-45" value="&lt;ul&gt;&lt;li&gt;items: List&amp;lt;Item&amp;gt;&lt;/li&gt;&lt;/ul&gt;" style="text;strokeColor=none;fillColor=none;html=1;whiteSpace=wrap;verticalAlign=middle;overflow=hidden;" parent="SIWMxVeSozMk9zqkIAL3-44" vertex="1">
          <mxGeometry y="26" width="160" height="80" as="geometry" />
        </mxCell>
        <mxCell id="SIWMxVeSozMk9zqkIAL3-46" value="" style="line;strokeWidth=1;fillColor=none;align=left;verticalAlign=middle;spacingTop=-1;spacingLeft=3;spacingRight=3;rotatable=0;labelPosition=right;points=[];portConstraint=eastwest;strokeColor=inherit;" parent="SIWMxVeSozMk9zqkIAL3-44" vertex="1">
          <mxGeometry y="106" width="160" height="8" as="geometry" />
        </mxCell>
        <mxCell id="SIWMxVeSozMk9zqkIAL3-47" value="&lt;ul&gt;&lt;li&gt;AddItem()&lt;/li&gt;&lt;li&gt;RemoveItem()&lt;/li&gt;&lt;li&gt;AddCurrency()&lt;/li&gt;&lt;li&gt;SpendCurrency()&lt;/li&gt;&lt;/ul&gt;" style="text;strokeColor=none;fillColor=none;align=left;verticalAlign=top;spacingLeft=4;spacingRight=4;overflow=hidden;rotatable=0;points=[[0,0.5],[1,0.5]];portConstraint=eastwest;whiteSpace=wrap;html=1;" parent="SIWMxVeSozMk9zqkIAL3-44" vertex="1">
          <mxGeometry y="114" width="160" height="86" as="geometry" />
        </mxCell>
        <mxCell id="SIWMxVeSozMk9zqkIAL3-48" value="HUD" style="swimlane;fontStyle=2;align=center;verticalAlign=top;childLayout=stackLayout;horizontal=1;startSize=26;horizontalStack=0;resizeParent=1;resizeLast=0;collapsible=1;marginBottom=0;rounded=0;shadow=0;strokeWidth=1;" parent="WIyWlLk6GJQsqaUBKTNV-1" vertex="1">
          <mxGeometry x="510" y="70" width="200" height="242" as="geometry">
            <mxRectangle x="230" y="140" width="160" height="26" as="alternateBounds" />
          </mxGeometry>
        </mxCell>
        <mxCell id="SIWMxVeSozMk9zqkIAL3-55" value="&lt;ul&gt;&lt;li&gt;&lt;span style=&quot;background-color: initial;&quot;&gt;Health Bar: UIElement&lt;/span&gt;&lt;/li&gt;&lt;li&gt;Magic Bar: UIElement&lt;/li&gt;&lt;li&gt;Inventory Buttom:UIElement&lt;/li&gt;&lt;/ul&gt;" style="text;strokeColor=none;fillColor=none;html=1;whiteSpace=wrap;verticalAlign=middle;overflow=hidden;" parent="SIWMxVeSozMk9zqkIAL3-48" vertex="1">
          <mxGeometry y="26" width="200" height="80" as="geometry" />
        </mxCell>
        <mxCell id="SIWMxVeSozMk9zqkIAL3-49" value="" style="line;html=1;strokeWidth=1;align=left;verticalAlign=middle;spacingTop=-1;spacingLeft=3;spacingRight=3;rotatable=0;labelPosition=right;points=[];portConstraint=eastwest;" parent="SIWMxVeSozMk9zqkIAL3-48" vertex="1">
          <mxGeometry y="106" width="200" height="8" as="geometry" />
        </mxCell>
        <mxCell id="SIWMxVeSozMk9zqkIAL3-56" value="&lt;ul&gt;&lt;li&gt;UpdateHealth()&lt;/li&gt;&lt;li&gt;UpdateMagic()&lt;/li&gt;&lt;li&gt;ShowInventory()&lt;/li&gt;&lt;/ul&gt;" style="text;strokeColor=none;fillColor=none;html=1;whiteSpace=wrap;verticalAlign=middle;overflow=hidden;" parent="SIWMxVeSozMk9zqkIAL3-48" vertex="1">
          <mxGeometry y="114" width="200" height="80" as="geometry" />
        </mxCell>
        <mxCell id="qiCvtsEVEO0x6pYx18os-9" value="" style="endArrow=open;shadow=0;strokeWidth=1;rounded=0;curved=0;endFill=1;edgeStyle=elbowEdgeStyle;elbow=vertical;" parent="WIyWlLk6GJQsqaUBKTNV-1" target="Y8HX50lOdKo4PexZbSxk-18" edge="1">
          <mxGeometry x="0.5" y="41" relative="1" as="geometry">
            <mxPoint x="600" y="310" as="sourcePoint" />
            <mxPoint x="600" y="414" as="targetPoint" />
            <mxPoint x="-40" y="32" as="offset" />
          </mxGeometry>
        </mxCell>
        <mxCell id="Y8HX50lOdKo4PexZbSxk-18" value="" style="shape=providedRequiredInterface;html=1;verticalLabelPosition=bottom;sketch=0;rotation=90;" parent="WIyWlLk6GJQsqaUBKTNV-1" vertex="1">
          <mxGeometry x="590" y="344" width="20" height="20" as="geometry" />
        </mxCell>
        <mxCell id="qiCvtsEVEO0x6pYx18os-10" value="1" style="endArrow=open;html=1;endSize=12;startArrow=diamondThin;startSize=14;startFill=1;edgeStyle=orthogonalEdgeStyle;align=left;verticalAlign=bottom;rounded=0;fontSize=12;curved=1;exitX=1.004;exitY=0.026;exitDx=0;exitDy=0;exitPerimeter=0;entryX=0.01;entryY=0.103;entryDx=0;entryDy=0;entryPerimeter=0;" parent="WIyWlLk6GJQsqaUBKTNV-1" source="zkfFHV4jXpPFQw0GAbJ--3" target="SIWMxVeSozMk9zqkIAL3-56" edge="1">
          <mxGeometry x="-1" y="3" relative="1" as="geometry">
            <mxPoint x="480" y="250" as="sourcePoint" />
            <mxPoint x="640" y="250" as="targetPoint" />
          </mxGeometry>
        </mxCell>
        <mxCell id="qiCvtsEVEO0x6pYx18os-11" value="" style="endArrow=open;shadow=0;strokeWidth=1;rounded=0;curved=0;endFill=1;edgeStyle=elbowEdgeStyle;elbow=vertical;entryX=0.5;entryY=0;entryDx=0;entryDy=0;" parent="WIyWlLk6GJQsqaUBKTNV-1" source="qiCvtsEVEO0x6pYx18os-12" target="Y8HX50lOdKo4PexZbSxk-23" edge="1">
          <mxGeometry x="0.5" y="41" relative="1" as="geometry">
            <mxPoint x="670" y="310" as="sourcePoint" />
            <mxPoint x="610" y="424" as="targetPoint" />
            <mxPoint x="-40" y="32" as="offset" />
          </mxGeometry>
        </mxCell>
        <mxCell id="qiCvtsEVEO0x6pYx18os-13" value="" style="endArrow=open;shadow=0;strokeWidth=1;rounded=0;curved=0;endFill=1;edgeStyle=elbowEdgeStyle;elbow=vertical;entryX=0;entryY=0.5;entryDx=0;entryDy=0;entryPerimeter=0;" parent="WIyWlLk6GJQsqaUBKTNV-1" target="qiCvtsEVEO0x6pYx18os-12" edge="1">
          <mxGeometry x="0.5" y="41" relative="1" as="geometry">
            <mxPoint x="710" y="292" as="sourcePoint" />
            <mxPoint x="810" y="410" as="targetPoint" />
            <mxPoint x="-40" y="32" as="offset" />
          </mxGeometry>
        </mxCell>
        <mxCell id="qiCvtsEVEO0x6pYx18os-12" value="" style="shape=providedRequiredInterface;html=1;verticalLabelPosition=bottom;sketch=0;rotation=90;" parent="WIyWlLk6GJQsqaUBKTNV-1" vertex="1">
          <mxGeometry x="880" y="292" width="20" height="20" as="geometry" />
        </mxCell>
        <mxCell id="qiCvtsEVEO0x6pYx18os-14" value="" style="endArrow=open;shadow=0;strokeWidth=1;rounded=0;curved=0;endFill=1;edgeStyle=elbowEdgeStyle;elbow=vertical;entryX=0.5;entryY=0;entryDx=0;entryDy=0;" parent="WIyWlLk6GJQsqaUBKTNV-1" source="qiCvtsEVEO0x6pYx18os-15" target="SIWMxVeSozMk9zqkIAL3-44" edge="1">
          <mxGeometry x="0.5" y="41" relative="1" as="geometry">
            <mxPoint x="530" y="310" as="sourcePoint" />
            <mxPoint x="800" y="360" as="targetPoint" />
            <mxPoint x="-40" y="32" as="offset" />
          </mxGeometry>
        </mxCell>
        <mxCell id="qiCvtsEVEO0x6pYx18os-16" value="" style="endArrow=open;shadow=0;strokeWidth=1;rounded=0;curved=0;endFill=1;edgeStyle=elbowEdgeStyle;elbow=vertical;entryX=0;entryY=0.5;entryDx=0;entryDy=0;entryPerimeter=0;" parent="WIyWlLk6GJQsqaUBKTNV-1" target="qiCvtsEVEO0x6pYx18os-15" edge="1">
          <mxGeometry x="0.5" y="41" relative="1" as="geometry">
            <mxPoint x="510" y="300" as="sourcePoint" />
            <mxPoint x="414" y="410" as="targetPoint" />
            <mxPoint x="-40" y="32" as="offset" />
            <Array as="points">
              <mxPoint x="420" y="300" />
            </Array>
          </mxGeometry>
        </mxCell>
        <mxCell id="qiCvtsEVEO0x6pYx18os-15" value="" style="shape=providedRequiredInterface;html=1;verticalLabelPosition=bottom;sketch=0;rotation=90;" parent="WIyWlLk6GJQsqaUBKTNV-1" vertex="1">
          <mxGeometry x="320" y="300" width="20" height="20" as="geometry" />
        </mxCell>
        <mxCell id="7uLDBK0nbjRuoTniAi1l-0" value="&lt;p style=&quot;margin:0px;margin-top:4px;text-align:center;&quot;&gt;&lt;b&gt;NPC&lt;/b&gt;&lt;/p&gt;&lt;hr size=&quot;1&quot; style=&quot;border-style:solid;&quot;&gt;&lt;p style=&quot;margin:0px;margin-left:4px;&quot;&gt;+ dialogue: String&lt;/p&gt;&lt;p style=&quot;margin:0px;margin-left:4px;&quot;&gt;+ Health Point: int&lt;/p&gt;&lt;p style=&quot;margin:0px;margin-left:4px;&quot;&gt;+ Name: String&lt;/p&gt;&lt;hr size=&quot;1&quot; style=&quot;border-style:solid;&quot;&gt;&lt;p style=&quot;margin:0px;margin-left:4px;&quot;&gt;+ getDialogue(): String&lt;/p&gt;&lt;p style=&quot;margin:0px;margin-left:4px;&quot;&gt;+ getHealth(): int&lt;/p&gt;&lt;p style=&quot;margin:0px;margin-left:4px;&quot;&gt;+ buyitem()&lt;/p&gt;&lt;p style=&quot;margin:0px;margin-left:4px;&quot;&gt;+ sellitem()&lt;/p&gt;" style="verticalAlign=top;align=left;overflow=fill;html=1;whiteSpace=wrap;" vertex="1" parent="WIyWlLk6GJQsqaUBKTNV-1">
          <mxGeometry x="60" y="680" width="160" height="160" as="geometry" />
        </mxCell>
        <mxCell id="7uLDBK0nbjRuoTniAi1l-8" value="" style="endArrow=none;html=1;rounded=0;entryX=0.01;entryY=0.666;entryDx=0;entryDy=0;entryPerimeter=0;exitX=0.017;exitY=0.666;exitDx=0;exitDy=0;exitPerimeter=0;" edge="1" parent="WIyWlLk6GJQsqaUBKTNV-1" source="SIWMxVeSozMk9zqkIAL3-33" target="SIWMxVeSozMk9zqkIAL3-22">
          <mxGeometry width="50" height="50" relative="1" as="geometry">
            <mxPoint x="720" y="520" as="sourcePoint" />
            <mxPoint x="750" y="750" as="targetPoint" />
            <Array as="points">
              <mxPoint x="740" y="520" />
              <mxPoint x="740" y="630" />
              <mxPoint x="740" y="759" />
            </Array>
          </mxGeometry>
        </mxCell>
        <mxCell id="7uLDBK0nbjRuoTniAi1l-10" value="" style="endArrow=none;html=1;rounded=0;exitX=1.007;exitY=0.901;exitDx=0;exitDy=0;exitPerimeter=0;" edge="1" parent="WIyWlLk6GJQsqaUBKTNV-1" source="SIWMxVeSozMk9zqkIAL3-1">
          <mxGeometry width="50" height="50" relative="1" as="geometry">
            <mxPoint x="700" y="710" as="sourcePoint" />
            <mxPoint x="740" y="580" as="targetPoint" />
          </mxGeometry>
        </mxCell>
        <mxCell id="7uLDBK0nbjRuoTniAi1l-11" value="1" style="text;html=1;align=center;verticalAlign=middle;whiteSpace=wrap;rounded=0;" vertex="1" parent="WIyWlLk6GJQsqaUBKTNV-1">
          <mxGeometry x="1090" y="184" width="30" height="16" as="geometry" />
        </mxCell>
        <mxCell id="7uLDBK0nbjRuoTniAi1l-12" value="0" style="text;html=1;align=center;verticalAlign=middle;whiteSpace=wrap;rounded=0;" vertex="1" parent="WIyWlLk6GJQsqaUBKTNV-1">
          <mxGeometry x="1160" y="184" width="30" height="16" as="geometry" />
        </mxCell>
        <mxCell id="7uLDBK0nbjRuoTniAi1l-13" value="1" style="text;html=1;align=center;verticalAlign=middle;whiteSpace=wrap;rounded=0;" vertex="1" parent="WIyWlLk6GJQsqaUBKTNV-1">
          <mxGeometry x="760" y="500" width="30" height="16" as="geometry" />
        </mxCell>
        <mxCell id="7uLDBK0nbjRuoTniAi1l-14" value="1" style="text;html=1;align=center;verticalAlign=middle;whiteSpace=wrap;rounded=0;" vertex="1" parent="WIyWlLk6GJQsqaUBKTNV-1">
          <mxGeometry x="680" y="554" width="30" height="16" as="geometry" />
        </mxCell>
        <mxCell id="7uLDBK0nbjRuoTniAi1l-15" value="1" style="text;html=1;align=center;verticalAlign=middle;whiteSpace=wrap;rounded=0;" vertex="1" parent="WIyWlLk6GJQsqaUBKTNV-1">
          <mxGeometry x="760" y="740" width="30" height="16" as="geometry" />
        </mxCell>
        <mxCell id="7uLDBK0nbjRuoTniAi1l-17" value="" style="endArrow=none;dashed=1;html=1;rounded=0;exitX=1;exitY=0.75;exitDx=0;exitDy=0;" edge="1" parent="WIyWlLk6GJQsqaUBKTNV-1" source="SIWMxVeSozMk9zqkIAL3-22">
          <mxGeometry width="50" height="50" relative="1" as="geometry">
            <mxPoint x="990" y="630" as="sourcePoint" />
            <mxPoint x="1040" y="450" as="targetPoint" />
            <Array as="points">
              <mxPoint x="1020" y="766" />
              <mxPoint x="1020" y="520" />
              <mxPoint x="1020" y="450" />
            </Array>
          </mxGeometry>
        </mxCell>
        <mxCell id="7uLDBK0nbjRuoTniAi1l-18" value="" style="endArrow=none;dashed=1;html=1;rounded=0;" edge="1" parent="WIyWlLk6GJQsqaUBKTNV-1">
          <mxGeometry width="50" height="50" relative="1" as="geometry">
            <mxPoint x="990" y="520" as="sourcePoint" />
            <mxPoint x="1020" y="520" as="targetPoint" />
            <Array as="points">
              <mxPoint x="950" y="520" />
            </Array>
          </mxGeometry>
        </mxCell>
        <mxCell id="7uLDBK0nbjRuoTniAi1l-19" value="" style="endArrow=block;dashed=1;endFill=0;endSize=12;html=1;rounded=0;" edge="1" parent="WIyWlLk6GJQsqaUBKTNV-1">
          <mxGeometry width="160" relative="1" as="geometry">
            <mxPoint x="1030" y="450" as="sourcePoint" />
            <mxPoint x="1081" y="450" as="targetPoint" />
            <Array as="points">
              <mxPoint x="1061" y="450" />
            </Array>
          </mxGeometry>
        </mxCell>
        <mxCell id="7uLDBK0nbjRuoTniAi1l-20" value="" style="endArrow=diamondThin;endFill=1;endSize=24;html=1;rounded=0;entryX=0.5;entryY=1;entryDx=0;entryDy=0;exitX=0.5;exitY=0;exitDx=0;exitDy=0;" edge="1" parent="WIyWlLk6GJQsqaUBKTNV-1" source="Y8HX50lOdKo4PexZbSxk-27" target="zkfFHV4jXpPFQw0GAbJ--17">
          <mxGeometry width="160" relative="1" as="geometry">
            <mxPoint x="560" y="880" as="sourcePoint" />
            <mxPoint x="720" y="880" as="targetPoint" />
          </mxGeometry>
        </mxCell>
        <mxCell id="7uLDBK0nbjRuoTniAi1l-21" value="1" style="text;html=1;align=center;verticalAlign=middle;whiteSpace=wrap;rounded=0;" vertex="1" parent="WIyWlLk6GJQsqaUBKTNV-1">
          <mxGeometry x="610" y="790" width="30" height="16" as="geometry" />
        </mxCell>
        <mxCell id="7uLDBK0nbjRuoTniAi1l-22" value="0..." style="text;html=1;align=center;verticalAlign=middle;whiteSpace=wrap;rounded=0;" vertex="1" parent="WIyWlLk6GJQsqaUBKTNV-1">
          <mxGeometry x="610" y="874" width="30" height="16" as="geometry" />
        </mxCell>
        <mxCell id="7uLDBK0nbjRuoTniAi1l-28" value="" style="endArrow=none;html=1;rounded=0;exitX=0.5;exitY=0;exitDx=0;exitDy=0;" edge="1" parent="WIyWlLk6GJQsqaUBKTNV-1">
          <mxGeometry width="50" height="50" relative="1" as="geometry">
            <mxPoint x="181.68" y="677.47" as="sourcePoint" />
            <mxPoint x="520" y="491" as="targetPoint" />
            <Array as="points">
              <mxPoint x="181.68" y="597.47" />
              <mxPoint x="321.68" y="597.47" />
              <mxPoint x="321.68" y="491.47" />
            </Array>
          </mxGeometry>
        </mxCell>
        <mxCell id="7uLDBK0nbjRuoTniAi1l-31" value="Loot&lt;div&gt;&lt;br&gt;&lt;/div&gt;" style="endArrow=open;endSize=12;dashed=1;html=1;rounded=0;exitX=0.5;exitY=1;exitDx=0;exitDy=0;entryX=0.479;entryY=0.994;entryDx=0;entryDy=0;entryPerimeter=0;" edge="1" parent="WIyWlLk6GJQsqaUBKTNV-1" source="SIWMxVeSozMk9zqkIAL3-17" target="Y8HX50lOdKo4PexZbSxk-26">
          <mxGeometry width="160" relative="1" as="geometry">
            <mxPoint x="550" y="1120" as="sourcePoint" />
            <mxPoint x="710" y="1120" as="targetPoint" />
            <Array as="points">
              <mxPoint x="370" y="1120" />
              <mxPoint x="1160" y="1120" />
            </Array>
          </mxGeometry>
        </mxCell>
        <mxCell id="7uLDBK0nbjRuoTniAi1l-32" value="" style="endArrow=classic;html=1;rounded=0;entryX=0;entryY=0.067;entryDx=0;entryDy=0;entryPerimeter=0;exitX=1;exitY=1;exitDx=0;exitDy=0;" edge="1" parent="WIyWlLk6GJQsqaUBKTNV-1" source="SIWMxVeSozMk9zqkIAL3-15" target="SIWMxVeSozMk9zqkIAL3-2">
          <mxGeometry width="50" height="50" relative="1" as="geometry">
            <mxPoint x="440" y="680" as="sourcePoint" />
            <mxPoint x="490" y="630" as="targetPoint" />
            <Array as="points">
              <mxPoint x="480" y="820" />
              <mxPoint x="480" y="610" />
            </Array>
          </mxGeometry>
        </mxCell>
        <mxCell id="7uLDBK0nbjRuoTniAi1l-33" value="" style="endArrow=none;html=1;rounded=0;entryX=0.18;entryY=1.001;entryDx=0;entryDy=0;entryPerimeter=0;exitX=0.361;exitY=0.004;exitDx=0;exitDy=0;exitPerimeter=0;" edge="1" parent="WIyWlLk6GJQsqaUBKTNV-1" source="7uLDBK0nbjRuoTniAi1l-0" target="SIWMxVeSozMk9zqkIAL3-47">
          <mxGeometry width="50" height="50" relative="1" as="geometry">
            <mxPoint x="110" y="670" as="sourcePoint" />
            <mxPoint x="160" y="620" as="targetPoint" />
          </mxGeometry>
        </mxCell>
        <mxCell id="7uLDBK0nbjRuoTniAi1l-34" value="1" style="text;html=1;align=center;verticalAlign=middle;whiteSpace=wrap;rounded=0;" vertex="1" parent="WIyWlLk6GJQsqaUBKTNV-1">
          <mxGeometry x="490" y="470" width="30" height="16" as="geometry" />
        </mxCell>
        <mxCell id="7uLDBK0nbjRuoTniAi1l-35" value="0..." style="text;html=1;align=center;verticalAlign=middle;whiteSpace=wrap;rounded=0;" vertex="1" parent="WIyWlLk6GJQsqaUBKTNV-1">
          <mxGeometry x="180" y="664" width="30" height="16" as="geometry" />
        </mxCell>
        <mxCell id="7uLDBK0nbjRuoTniAi1l-36" value="0..." style="text;html=1;align=center;verticalAlign=middle;whiteSpace=wrap;rounded=0;" vertex="1" parent="WIyWlLk6GJQsqaUBKTNV-1">
          <mxGeometry x="450" y="824" width="30" height="16" as="geometry" />
        </mxCell>
        <mxCell id="7uLDBK0nbjRuoTniAi1l-37" value="1" style="text;html=1;align=center;verticalAlign=middle;whiteSpace=wrap;rounded=0;" vertex="1" parent="WIyWlLk6GJQsqaUBKTNV-1">
          <mxGeometry x="490" y="585" width="30" height="16" as="geometry" />
        </mxCell>
        <mxCell id="7uLDBK0nbjRuoTniAi1l-38" value="1" style="text;html=1;align=center;verticalAlign=middle;whiteSpace=wrap;rounded=0;" vertex="1" parent="WIyWlLk6GJQsqaUBKTNV-1">
          <mxGeometry x="90" y="664" width="30" height="16" as="geometry" />
        </mxCell>
        <mxCell id="7uLDBK0nbjRuoTniAi1l-39" value="1" style="text;html=1;align=center;verticalAlign=middle;whiteSpace=wrap;rounded=0;" vertex="1" parent="WIyWlLk6GJQsqaUBKTNV-1">
          <mxGeometry x="90" y="570" width="30" height="16" as="geometry" />
        </mxCell>
        <mxCell id="7uLDBK0nbjRuoTniAi1l-42" value="0..." style="text;html=1;align=center;verticalAlign=middle;whiteSpace=wrap;rounded=0;" vertex="1" parent="WIyWlLk6GJQsqaUBKTNV-1">
          <mxGeometry x="1180" y="529" width="30" height="16" as="geometry" />
        </mxCell>
        <mxCell id="7uLDBK0nbjRuoTniAi1l-43" value="1" style="text;html=1;align=center;verticalAlign=middle;whiteSpace=wrap;rounded=0;" vertex="1" parent="WIyWlLk6GJQsqaUBKTNV-1">
          <mxGeometry x="370" y="930" width="30" height="16" as="geometry" />
        </mxCell>
      </root>
    </mxGraphModel>
  </diagram>
</mxfile>
